# xmcd CD database file
#
# Track frame offsets:
#	150
#	25755
#	42641
#	60850
#	81688
#	103545
#	126776
#	144237
#	163328
#	183552
#	202722
#	222680
#	243865
#
# Disc length: 3547 seconds
#
# Revision: 0
# Processed by: cddbd v1.5.2PL0 Copyright (c) Steve Scherf et al.
# Submitted via: CDex 1.51
#
DISCID=b80dd90d
DTITLE=Cultured Pearls - Space Age Honeymoon
DYEAR=1997
DGENRE=Jazz
TTITLE0=Just to let you know
TTITLE1=Mr. Lonely
TTITLE2=Sugar sugar honey
TTITLE3=Space age honeymoon
TTITLE4=You're fired
TTITLE5=I lost my man
TTITLE6=Hatecycle
TTITLE7=Fly
TTITLE8=Silverball
TTITLE9=Dancefloor
TTITLE10=Bubbles
TTITLE11=Underwaterman
TTITLE12=Senses
EXTD=YEAR: 1997
EXTT0=
EXTT1=
EXTT2=
EXTT3=
EXTT4=
EXTT5=
EXTT6=
EXTT7=
EXTT8=
EXTT9=
EXTT10=
EXTT11=
EXTT12=
PLAYORDER=
